<svg id="Layer_1" data-name="Layer 1" xmlns="http://www.w3.org/2000/svg" xmlns:xlink="http://www.w3.org/1999/xlink" viewBox="0 0 565.15 430.27"><defs><linearGradient id="linear-gradient" x1="100.96" y1="162.28" x2="99.57" y2="95.4" gradientUnits="userSpaceOnUse"><stop offset="0" stop-color="#fff" stop-opacity="0"/><stop offset="0.13" stop-color="#fff" stop-opacity="0.23"/><stop offset="0.23" stop-color="#fff" stop-opacity="0.41"/><stop offset="0.35" stop-color="#fff" stop-opacity="0.59"/><stop offset="0.48" stop-color="#fff" stop-opacity="0.74"/><stop offset="0.6" stop-color="#fff" stop-opacity="0.85"/><stop offset="0.72" stop-color="#fff" stop-opacity="0.93"/><stop offset="0.84" stop-color="#fff" stop-opacity="0.98"/><stop offset="0.95" stop-color="#fff"/></linearGradient><linearGradient id="linear-gradient-2" x1="638.59" y1="668.5" x2="-187.08" y2="-295.71" gradientUnits="userSpaceOnUse"><stop offset="0" stop-color="#010101" stop-opacity="0"/><stop offset="0.95" stop-color="#010101"/></linearGradient><linearGradient id="linear-gradient-3" x1="291.6" y1="496.27" x2="280.52" y2="-35.67" xlink:href="#linear-gradient"/><linearGradient id="linear-gradient-4" x1="283" y1="77.35" x2="319.94" y2="406.14" xlink:href="#linear-gradient-2"/><linearGradient id="linear-gradient-5" x1="115.57" y1="291.83" x2="114.03" y2="388.81" xlink:href="#linear-gradient-2"/><linearGradient id="linear-gradient-6" x1="339.06" y1="141.94" x2="646.61" y2="840.16" xlink:href="#linear-gradient"/><linearGradient id="linear-gradient-7" x1="377.18" y1="246.37" x2="1048.62" y2="130" xlink:href="#linear-gradient-2"/><linearGradient id="linear-gradient-8" x1="125.83" y1="168.66" x2="127.21" y2="279.03" xlink:href="#linear-gradient"/><linearGradient id="linear-gradient-9" x1="125.54" y1="168.66" x2="126.92" y2="279.03" xlink:href="#linear-gradient"/><linearGradient id="linear-gradient-10" x1="398.71" y1="210.72" x2="387.9" y2="218.95" xlink:href="#linear-gradient-2"/><linearGradient id="linear-gradient-11" x1="396.94" y1="212.85" x2="389.93" y2="218.18" xlink:href="#linear-gradient-2"/><linearGradient id="linear-gradient-12" x1="395.87" y1="253.16" x2="397.92" y2="252.97" xlink:href="#linear-gradient-2"/><linearGradient id="linear-gradient-13" x1="442.16" y1="218.58" x2="455.62" y2="181.11" xlink:href="#linear-gradient"/><linearGradient id="linear-gradient-14" x1="418.96" y1="281.96" x2="436.91" y2="236.69" xlink:href="#linear-gradient"/><linearGradient id="linear-gradient-15" x1="439.94" y1="218.27" x2="281.5" y2="660.03" xlink:href="#linear-gradient-2"/><linearGradient id="linear-gradient-16" x1="490.66" y1="211.97" x2="511.15" y2="346.61" xlink:href="#linear-gradient-2"/><linearGradient id="linear-gradient-17" x1="404.79" y1="212.95" x2="393.98" y2="221.17" xlink:href="#linear-gradient-2"/><linearGradient id="linear-gradient-18" x1="403.01" y1="215.07" x2="396.01" y2="220.41" xlink:href="#linear-gradient-2"/></defs><title>landing pages</title><path d="M567.12,359.74c-3.81,23.91-17.19,45.75-35.82,61.2C530,422,528.71,423,527.39,424c0,0-.06,0-.09.06a98.08,98.08,0,0,1-44.12,18.83c-29.46,4.4-59.14-4.46-88.86-6-53.27-2.79-104.61,17.78-157.09,27.19S123,468.21,89.72,426.52c-.2-.23-.36-.46-.56-.72C78.63,412.32,72,396.28,63.67,381.25q-2.16-3.93-4.46-7.7c-14.76-23.92-36.44-43.5-47.73-69.22a99.12,99.12,0,0,1,1.12-81.08c10.63-22.51,29.32-40,47.56-56.95,1.18-1.08,2.33-2.16,3.51-3.25q23.47-21.8,47-43.59c8.62-8,17.25-16,26.21-23.62,11.87-10.2,24.2-19.71,37.65-27.62C207.31,48.87,238.47,51.07,274.06,45c41.14-7,83.26-13.09,123.27,2.76,23.36,9.22,43.4,25,63.08,40.51L470,95.84c18,14.21,36,28.44,53.7,42.94,3.87,3.18,7.77,6.43,11.41,9.91,5.64,5.38,10.66,11.31,13.88,18.37,3.87,8.43,4.85,17.84,5.8,27.06q5.76,57,11.58,114C568.07,325.29,569.81,342.68,567.12,359.74Z" transform="translate(-3.36 -37.8)" fill="#008fd3" opacity="0.24" style="isolation:isolate"/><path d="M136.89,95.84c-9,7.61-17.59,15.65-26.21,23.62q-23.48,21.8-47,43.59V110.54a14.67,14.67,0,0,1,14.7-14.7Z" transform="translate(-3.36 -37.8)" fill="url(#linear-gradient)"/><path d="M535.07,148.69V411.1a14.65,14.65,0,0,1-3.77,9.84,15.24,15.24,0,0,1-3.91,3.09s-.06,0-.09.06a14.83,14.83,0,0,1-6.92,1.71H89.16C78.63,412.32,72,396.28,63.67,381.25V163.05q23.47-21.8,47-43.59c8.62-8,17.25-16,26.21-23.62H470c18,14.21,36,28.44,53.7,42.94C527.53,142,531.43,145.21,535.07,148.69Z" transform="translate(-3.36 -37.8)" fill="url(#linear-gradient-2)"/><rect x="47.38" y="46.02" width="471.4" height="329.98" rx="14.69" fill="#008fd3"/><path d="M522.15,98.53V399.1a14.7,14.7,0,0,1-14.7,14.69h-442A14.67,14.67,0,0,1,50.75,399.1V98.53A14.67,14.67,0,0,1,65.44,83.84h442A14.7,14.7,0,0,1,522.15,98.53Z" transform="translate(-3.36 -37.8)" fill="url(#linear-gradient-3)"/><path d="M522.15,98.53v19.82H50.75V98.53A14.67,14.67,0,0,1,65.44,83.84h442A14.7,14.7,0,0,1,522.15,98.53Z" transform="translate(-3.36 -37.8)" fill="#008fd3" opacity="0.24" style="isolation:isolate"/><path d="M522.15,98.53v19.82H50.75V98.53A14.67,14.67,0,0,1,65.44,83.84h442A14.7,14.7,0,0,1,522.15,98.53Z" transform="translate(-3.36 -37.8)" fill="#008fd3"/><path d="M522.15,98.53v19.82H50.75V98.53A14.67,14.67,0,0,1,65.44,83.84h442A14.7,14.7,0,0,1,522.15,98.53Z" transform="translate(-3.36 -37.8)" fill="url(#linear-gradient-4)"/><rect x="76.94" y="140.89" width="131.76" height="22.17" rx="11.08" fill="#008fd3" opacity="0.24" style="isolation:isolate"/><rect x="76.94" y="291.74" width="76.92" height="22.17" rx="11.08" fill="#008fd3"/><rect x="76.94" y="291.74" width="76.92" height="22.17" rx="11.08" fill="url(#linear-gradient-5)"/><rect x="81.25" y="172.44" width="76.53" height="11.25" rx="5.62" fill="#008fd3" opacity="0.24" style="isolation:isolate"/><path d="M521.16,118.35V406.51l-.1,0s0,0-.06,0a2.63,2.63,0,0,0-.43-.23c-1.08-.5-3.57-1.64-7.28-3.38-.43-.2-.85-.4-1.31-.59l-2.23-1.05c-.53-.23-1.05-.49-1.58-.72-4.43-2.07-9.87-4.6-16.1-7.52-1.91-.88-3.87-1.8-5.94-2.78L414.88,357c-1.44-.65-2.85-1.34-4.29-2-2.23-1.05-4.5-2.1-6.76-3.15-2.07-1-4.17-1.93-6.27-2.92q-8.31-3.88-16.59-7.74c-1.71-.78-3.45-1.57-5.15-2.39-2.89-1.35-5.74-2.69-8.6-4-1-.5-2.06-1-3.11-1.45L361.19,332c-1.87-.86-3.71-1.71-5.55-2.6-8.26-3.83-16.3-7.57-23.91-11.15-1.71-.75-3.38-1.54-5.05-2.33-5-2.33-9.84-4.59-14.4-6.72h0c-2.27-1.05-4.43-2.07-6.56-3.05L302,304.43l-2.26-1.05-2.23-1.05L294,300.69c-3.21-1.51-6.2-2.88-9-4.16-.82-.4-1.61-.76-2.37-1.12-2.42-1.15-4.62-2.16-6.56-3.08-.65-.26-1.24-.56-1.83-.82-2.66-1.25-4.73-2.2-6.07-2.82a8.43,8.43,0,0,0-.79-.4c-1.11-.52-2.2-1.05-3.25-1.6-1.9-1-3.7-2-5.38-3-.75-.46-1.5-.95-2.23-1.45a1.64,1.64,0,0,1-.42-.26c-.63-.42-1.25-.88-1.87-1.34a35.61,35.61,0,0,1-2.86-2.2c-.62-.53-1.24-1.05-1.83-1.58,0,0-.07,0-.1-.09-.62-.56-1.25-1.15-1.84-1.74,0,0,0,0-.06-.07-.73-.69-1.38-1.41-2-2.1s-1.28-1.44-1.83-2.16-1.15-1.48-1.68-2.23-1.05-1.51-1.51-2.27-.91-1.54-1.31-2.32a41.82,41.82,0,0,1-3-7.22c-3.22-10.53-2.27-22,1.44-33.75a5.1,5.1,0,0,1,.2-.63c7.54-23.42,25.78-47.72,42.93-66.88A405.84,405.84,0,0,1,318,119Z" transform="translate(-3.36 -37.8)" fill="#008fd3" opacity="0.24" style="isolation:isolate"/><path d="M521.16,173v129.2a.93.93,0,0,1-.33,0c-.32.06-.65.09-1,.13-16.27,1.31-32.44-3.81-48.74-3.61-12.57.1-24.83,3.35-37.14,5.94a364,364,0,0,1-99.22,6.95c-7.48-.52-15-1.28-22.47-2.49h0c-15.49-2.53-30.58-7-43.86-15.26A76.38,76.38,0,0,1,247.69,275s0,0-.06-.07c-.89-1.18-1.74-2.36-2.53-3.57a62.29,62.29,0,0,1-7.28-15c-.36-1.08-.69-2.16-1-3.28l.89-30.17a5.1,5.1,0,0,1,.2-.63c7.54-23.42,25.78-47.72,42.93-66.88h4.83V178.6H294V160h9.84v17.29H317V197.5h14.83V177.78h25.91V197.5h22.67v-31H392v10h9.71V197.5h9.71v-14h11.87v14h6.5v-23h11.32v-9.38h21.58V197.5h9.54V146.39h21.59V197.5h9V155.05h16.56v18Z" transform="translate(-3.36 -37.8)" fill="#008fd3" opacity="0.24" style="isolation:isolate"/><path d="M521.16,406.51S285.45,296.72,267.47,288.29,240.05,269,236.28,256.64l284.26-51.47Z" transform="translate(-3.36 -37.8)" fill="#008fd3"/><path d="M521.16,406.51S285.45,296.72,267.47,288.29,240.05,269,236.28,256.64l284.26-51.47Z" transform="translate(-3.36 -37.8)" fill="url(#linear-gradient-6)"/><polygon points="327.84 246.8 516.25 207.08 516.25 230.17 361.09 264.34 327.84 246.8" fill="url(#linear-gradient-7)"/><rect x="79.71" y="213.39" width="93.59" height="17.86" fill="url(#linear-gradient-8)"/><rect x="79.71" y="236.48" width="93.59" height="17.86" fill="url(#linear-gradient-9)"/><ellipse cx="390.72" cy="216.79" rx="3.55" ry="4.11" fill="#008fd3"/><ellipse cx="390.73" cy="216.79" rx="3.55" ry="4.11" fill="url(#linear-gradient-10)"/><ellipse cx="391.76" cy="216.78" rx="1.97" ry="3.09" fill="url(#linear-gradient-11)"/><path d="M398.35,249s-1.68,3.62-.11,5a14.62,14.62,0,0,0,2.27,1.72l-.69,1-5.42-2.05s-.44-.81.11-1.25c0,0,.88.19,1.25-.36a20.07,20.07,0,0,0,.73-3.84Z" transform="translate(-3.36 -37.8)" fill="#008fd3"/><path d="M398.35,249s-1.68,3.62-.11,5a14.62,14.62,0,0,0,2.27,1.72l-.69,1-5.42-2.05s-.44-.81.11-1.25c0,0,.88.19,1.25-.36a20.07,20.07,0,0,0,.73-3.84Z" transform="translate(-3.36 -37.8)" fill="url(#linear-gradient-12)"/><g id="kbwNYr"><path d="M423.31,217.34c7.92-1.17,18.13-3.14,25.58-4.24,2.26-.33,7.61-.6,9.88-.77,1.71-.12,6.57-12.64,7.27-14.19,4.16-9.26,8.41-18.48,12.63-27.71.13-.28.29-.56.4-.85,1.2-3.36.54-3.92-3-3.78-8.07.33-14,4.58-19,10.28-8,9.13-15.64,18.52-23.44,27.8C433.56,204.05,423.66,216.74,423.31,217.34Z" transform="translate(-3.36 -37.8)" fill="#008fd3"/><path d="M423.31,217.34c7.92-1.17,18.13-3.14,25.58-4.24,2.26-.33,7.61-.6,9.88-.77,1.71-.12,6.57-12.64,7.27-14.19,4.16-9.26,8.41-18.48,12.63-27.71.13-.28.29-.56.4-.85,1.2-3.36.54-3.92-3-3.78-8.07.33-14,4.58-19,10.28-8,9.13-15.64,18.52-23.44,27.8C433.56,204.05,423.66,216.74,423.31,217.34Z" transform="translate(-3.36 -37.8)" fill="url(#linear-gradient-13)"/><path d="M454.37,241.75c6.32-1,12.22-1.88,18.08-2.91,15.53-2.72,31-5.93,45.42-12.48a67.18,67.18,0,0,0,12.24-7.5c3.84-2.87,5.24-6.84,4.3-11.9-2-10.67-3.49-21.43-5.17-32.15-.61-3.89-2.7-5.3-6.49-4.25-3.22.9-5.67,2.72-6.79,6-1.83,5.37-3.58,10.77-5.46,16.11A41,41,0,0,1,508,198.5a7.33,7.33,0,0,1-5.64,3.79q-61.26,9.89-122.52,19.84c-10.36,1.67-19.81,5.18-27.35,12.76-3.71,3.73-6.69,8-7.74,13.27-.73,3.69,0,4.94,3.76,5.13a112.32,112.32,0,0,0,16.51,0c14.56-1.42,29.08-3.22,43.61-5a8,8,0,0,1,5.71,1.26c20.62,13,41.32,25.92,61.95,38.92,6.69,4.22,13.79,4.34,21.17,2.57,1.31-.31,1.71-1.2,1-2.29a20.8,20.8,0,0,0-2.69-3.56Q476,264.5,456.23,243.83C455.69,243.27,455.19,242.67,454.37,241.75Z" transform="translate(-3.36 -37.8)" fill="#008fd3"/><path d="M530.09,218.86a64.92,64.92,0,0,1-12.22,7.49c-14.47,6.57-29.9,9.77-45.41,12.47-5.86,1-11.76,1.92-18.08,2.91.83.92,1.33,1.54,1.87,2.08,13.18,13.81,26.36,27.57,39.5,41.42a20.25,20.25,0,0,1,2.7,3.53c.67,1.08.25,2-1,2.29-7.36,1.79-14.47,1.66-21.16-2.58-20.63-13-41.33-25.86-62-38.92a8.19,8.19,0,0,0-5.7-1.25c-14.55,1.75-29.06,3.54-43.61,4.95a109.61,109.61,0,0,1-16.51,0c-3.78-.2-4.49-1.45-3.78-5.11,1.08-5.32,4-9.56,7.73-13.27,7.57-7.6,17-11.1,27.36-12.76q61.31-9.92,122.54-19.88a7.11,7.11,0,0,0,5.61-3.78,38.63,38.63,0,0,0,2.58-5.82c1.87-5.37,3.62-10.73,5.45-16.13,1.12-3.25,3.57-5.08,6.77-6,3.83-1,5.91.37,6.49,4.24,1.5,9.52,2.87,19.08,4.57,28.61.17,1.2.42,2.37.63,3.57C535.33,212,534,216,530.09,218.86Z" transform="translate(-3.36 -37.8)" fill="url(#linear-gradient-14)"/></g><path d="M497.41,291.05c-7.36,1.79-14.47,1.66-21.16-2.58-20.63-13-41.33-25.86-62-38.92a8.19,8.19,0,0,0-5.7-1.25c-14.55,1.75-29.06,3.54-43.61,4.95a109.61,109.61,0,0,1-16.51,0c-3.78-.2-4.49-1.45-3.78-5.11l50.94-6a41.34,41.34,0,0,1,22.88,3.89l2.81,1.36s58.54,39.42,66.74,40.17,10.39,1.12,10.39,1.12C499.12,289.84,498.7,290.76,497.41,291.05Z" transform="translate(-3.36 -37.8)" fill="url(#linear-gradient-15)"/><path d="M530.09,218.86a64.92,64.92,0,0,1-12.22,7.49c-14.47,6.57-29.9,9.77-45.41,12.47-5.86,1-11.76,1.92-18.08,2.91l-4.5-5.11S509,225.81,518.7,217.33c8.82-7.74,14.22-13.06,15.09-13.93.17,1.2.42,2.37.63,3.57C535.33,212,534,216,530.09,218.86Z" transform="translate(-3.36 -37.8)" fill="url(#linear-gradient-16)"/><ellipse cx="396.8" cy="219.02" rx="3.55" ry="4.11" fill="#008fd3"/><ellipse cx="396.81" cy="219.02" rx="3.55" ry="4.11" fill="url(#linear-gradient-17)"/><ellipse cx="397.84" cy="219.01" rx="1.97" ry="3.09" fill="url(#linear-gradient-18)"/></svg>