<svg id="Layer_1" data-name="Layer 1" xmlns="http://www.w3.org/2000/svg" xmlns:xlink="http://www.w3.org/1999/xlink" viewBox="0 0 509.06 400.24"><defs><linearGradient id="linear-gradient" x1="90.82" y1="141.9" x2="173.88" y2="141.9" gradientUnits="userSpaceOnUse"><stop offset="0" stop-color="#010101" stop-opacity="0"/><stop offset="0.95" stop-color="#010101"/></linearGradient><linearGradient id="linear-gradient-2" x1="262.52" y1="173.98" x2="251.46" y2="676.55" xlink:href="#linear-gradient"/><linearGradient id="linear-gradient-3" x1="307.73" y1="242.72" x2="462.56" y2="270.98" gradientTransform="translate(-41.92 62.69) rotate(-11.5)" xlink:href="#linear-gradient"/><linearGradient id="linear-gradient-4" x1="330.55" y1="149.67" x2="287.24" y2="171.33" gradientTransform="translate(-25.69 63.99) rotate(-11.5)" xlink:href="#linear-gradient"/><linearGradient id="linear-gradient-5" x1="246.1" y1="413.19" x2="309.26" y2="111.09" gradientUnits="userSpaceOnUse"><stop offset="0" stop-color="#fff" stop-opacity="0"/><stop offset="0.95" stop-color="#fff"/></linearGradient><linearGradient id="linear-gradient-6" x1="308.28" y1="281.37" x2="331.35" y2="281.37" xlink:href="#linear-gradient"/><linearGradient id="linear-gradient-7" x1="317.81" y1="281.02" x2="367.6" y2="281.02" gradientUnits="userSpaceOnUse"><stop offset="0" stop-color="#e5c6d6"/><stop offset="0.42" stop-color="#ead4d0"/><stop offset="1" stop-color="#f0e9cb"/></linearGradient><linearGradient id="linear-gradient-8" x1="119.46" y1="96.91" x2="159.48" y2="181.98" xlink:href="#linear-gradient"/><linearGradient id="linear-gradient-9" x1="147.37" y1="298.16" x2="232.29" y2="298.16" xlink:href="#linear-gradient-7"/><linearGradient id="linear-gradient-10" x1="332.41" y1="261.42" x2="366.51" y2="246.06" xlink:href="#linear-gradient"/><linearGradient id="linear-gradient-11" x1="343.22" y1="251.07" x2="252.68" y2="284.8" xlink:href="#linear-gradient"/><linearGradient id="linear-gradient-12" x1="234.51" y1="573.16" x2="259.57" y2="561.87" gradientTransform="translate(110.34 -286.32)" xlink:href="#linear-gradient"/><linearGradient id="linear-gradient-13" x1="331.3" y1="243.26" x2="353.11" y2="246.49" xlink:href="#linear-gradient-7"/><linearGradient id="linear-gradient-14" x1="352.42" y1="295.89" x2="343.05" y2="275.69" xlink:href="#linear-gradient"/><linearGradient id="linear-gradient-15" x1="92.05" y1="226.26" x2="91.13" y2="174.65" xlink:href="#linear-gradient"/><linearGradient id="linear-gradient-16" x1="144.41" y1="136.92" x2="152.3" y2="144.81" xlink:href="#linear-gradient"/><linearGradient id="linear-gradient-17" x1="123.84" y1="124.88" x2="141.39" y2="124.88" xlink:href="#linear-gradient"/><linearGradient id="linear-gradient-18" x1="218.33" y1="66.07" x2="301.39" y2="66.07" gradientTransform="translate(70.33 -116.44) rotate(31.36)" xlink:href="#linear-gradient"/><linearGradient id="linear-gradient-19" x1="246.98" y1="21.08" x2="287" y2="106.15" gradientTransform="translate(70.33 -116.44) rotate(31.36)" xlink:href="#linear-gradient"/><linearGradient id="linear-gradient-20" x1="271.93" y1="61.09" x2="279.82" y2="68.98" gradientTransform="translate(70.33 -116.44) rotate(31.36)" xlink:href="#linear-gradient"/><linearGradient id="linear-gradient-21" x1="251.35" y1="49.05" x2="268.9" y2="49.05" gradientTransform="translate(70.33 -116.44) rotate(31.36)" xlink:href="#linear-gradient"/><linearGradient id="linear-gradient-22" x1="453.46" y1="108.57" x2="536.51" y2="108.57" gradientTransform="translate(142.56 595.55) rotate(-64.97)" xlink:href="#linear-gradient"/><linearGradient id="linear-gradient-23" x1="482.06" y1="63.55" x2="522.08" y2="148.62" gradientTransform="translate(142.56 595.55) rotate(-64.97)" xlink:href="#linear-gradient"/><linearGradient id="linear-gradient-24" x1="507.05" y1="103.59" x2="514.94" y2="111.48" gradientTransform="translate(142.56 595.55) rotate(-64.97)" xlink:href="#linear-gradient"/><linearGradient id="linear-gradient-25" x1="486.47" y1="91.55" x2="504.02" y2="91.55" gradientTransform="translate(142.56 595.55) rotate(-64.97)" xlink:href="#linear-gradient"/></defs><title>Revenue 3</title><path d="M511.32,267.39c-1.7,26-8.35,53.64-27.92,70.89-16.66,14.7-39.71,19.28-59.51,29.36-18,9.2-34.2,23.24-51.45,33.75-1.83,1.14-3.7,2.22-5.57,3.27-10.34,5.73-21.17,9.89-33.12,10.77a77.39,77.39,0,0,1-15.29-.49c-.81-.1-1.6-.2-2.42-.36-6.18-.85-12.3-2.16-18.43-3.4a786.35,786.35,0,0,0-85.69-12.7c-3.07-.33-6.18-.59-9.26-.86-1.31-.13-2.59-.22-3.89-.32-14.77-1.15-30.48-.66-45.8-1.84q-2.83-.19-5.69-.49a113.88,113.88,0,0,1-21.21-4c-40-11.95-75-61.08-96.46-94-19.34-29.79-34.27-66.58-23-100.26,8.58-25.53,30.38-43.86,48.22-64,28-31.62,48.6-71,84.08-93.88C184,9.69,242.2,13.88,295.65,19.15c21.44,2.1,43.63,4.45,62.12,15.45,21.38,12.7,34.77,35,50.71,54.14,32.11,38.52,78.09,67.78,95.38,114.85C511.32,223.85,512.69,245.88,511.32,267.39Z" transform="translate(-2.73 -15.38)" fill="#008fd3" opacity="0.24" style="isolation:isolate"/><path d="M468.39,288.64c-1.37,21-6.73,43.29-22.52,57.2-13.45,11.86-32,15.56-48,23.69-14.55,7.43-27.6,18.76-41.52,27.23-1.47.93-3,1.8-4.48,2.64-8.35,4.63-17.09,8-26.73,8.69a62.1,62.1,0,0,1-12.34-.39c-.66-.08-1.29-.16-1.95-.29-5-.69-9.93-1.75-14.87-2.75a637.37,637.37,0,0,0-69.14-10.25c-2.48-.26-5-.47-7.48-.68-1.05-.11-2.08-.19-3.14-.27-11.91-.92-24.59-.53-36.95-1.48q-2.3-.15-4.59-.39a92.64,92.64,0,0,1-17.12-3.25C125.3,378.7,97,339.06,79.71,312.52c-15.6-24-27.65-53.72-18.54-80.9C68.09,211,85.68,196.23,100.08,180c22.58-25.51,39.22-57.26,67.84-75.74,36.4-23.51,83.33-20.13,126.46-15.88,17.29,1.7,35.2,3.6,50.12,12.47,17.25,10.25,28.05,28.26,40.91,43.68,25.91,31.09,63,54.7,77,92.68C468.39,253.51,469.5,271.29,468.39,288.64Z" transform="translate(-2.73 -15.38)" fill="#008fd3" opacity="0.24" style="isolation:isolate"/><path d="M90.82,128.31s1,6.68,2.07,8.75,13.71,22.35,15.55,22.58,64.17-30.87,64.17-30.87l1.27-4.61Z" transform="translate(-2.73 -15.38)" fill="#008fd3"/><path d="M90.82,128.31s1,6.68,2.07,8.75,13.71,22.35,15.55,22.58,64.17-30.87,64.17-30.87l1.27-4.61Z" transform="translate(-2.73 -15.38)" opacity="0.26" fill="url(#linear-gradient)"/><path d="M64,218.85s4.84-8.75,6.68-11.29,31.79-15.43,31.79-15.43-11.29,13.13-13.36,14.05S64,218.85,64,218.85Z" transform="translate(-2.73 -15.38)" fill="#008fd3"/><path d="M372.47,304.34c-1.83,7.36-.92,17.51-.92,17.51l.89,79.54c-1.83,1.14-3.7,2.22-5.57,3.27-10.34,5.73-21.17,9.89-33.12,10.77a80.41,80.41,0,0,1-17.67-.81l0,0v-67a14.67,14.67,0,0,0-11.42-14.32c-21.89-5-67.92-15.26-71.75-14.91-5.07.46-13.39,12-18.46,18.43S211,348.56,211,348.56l.95,49.92c-3.07-.33-6.18-.59-9.26-.86-1.31-.13-2.59-.22-3.89-.32-14.77-1.15-30.48-.66-45.8-1.84l-3.53-38.59,2-14.2s-.1-18.07-2.42-25.43-.92-10.61-.92-15.68,43.8-21.18,43.8-21.18L188.62,267s-34.57,9.23-40.1,8.32-2.29-9.69-2.29-9.69l52.54-49.75,11.06,39.6s-4.16,18,1.37,26.74,12.9,2.29,15.19-.45,10.08-7.27,10.08-7.27l26.35-93.65s72.8-3.24,86.08-3.73,16.21,9.72,16.66,11.56-7.82,27.66-9.68,42.38,6,18,6,18C381.24,267.45,374.34,296.94,372.47,304.34Z" transform="translate(-2.73 -15.38)" opacity="0.26" fill="url(#linear-gradient-2)"/><rect x="233.02" y="157.76" width="114.89" height="163.61" rx="9.91" transform="translate(50.84 -68.46) rotate(11.5)" fill="#008fd3"/><rect x="233.02" y="157.76" width="114.89" height="163.61" rx="9.91" transform="translate(50.84 -68.46) rotate(11.5)" fill="url(#linear-gradient-3)"/><rect x="230.72" y="156.38" width="114.89" height="163.61" rx="9.91" transform="translate(50.52 -68.03) rotate(11.5)" fill="#008fd3"/><path d="M294,151.15h22.13a12.54,12.54,0,0,1,12.54,12.54V168a0,0,0,0,1,0,0H281.43a0,0,0,0,1,0,0V163.7A12.54,12.54,0,0,1,294,151.15Z" transform="translate(35.2 -72.97) rotate(11.5)" fill="#008fd3"/><path d="M294,151.15h22.13a12.54,12.54,0,0,1,12.54,12.54V168a0,0,0,0,1,0,0H281.43a0,0,0,0,1,0,0V163.7A12.54,12.54,0,0,1,294,151.15Z" transform="translate(35.2 -72.97) rotate(11.5)" fill="url(#linear-gradient-4)"/><polygon points="316.6 303.55 225.41 285.01 254.98 143.17 346.17 161.72 316.6 303.55" fill="url(#linear-gradient-5)"/><path d="M292.24,150.81h22.13a12.54,12.54,0,0,1,12.54,12.54v4.35a0,0,0,0,1,0,0H279.7a0,0,0,0,1,0,0v-4.35A12.54,12.54,0,0,1,292.24,150.81Z" transform="translate(35.09 -72.63) rotate(11.5)" fill="#fff"/><path d="M343.57,189l-83.32-16.95,1.28-6.3,83.32,16.94Zm-81.42-18.2,80.16,16.3L343,184l-80.16-16.3Z" transform="translate(-2.73 -15.38)" fill="#008fd3"/><path d="M334.45,233.82l-83.32-16.94,7.62-37.45,83.32,16.94ZM253,215.62l80.16,16.3,7-34.29L260,181.32Z" transform="translate(-2.73 -15.38)" fill="#008fd3"/><path d="M339.76,207.74,256.44,190.8l2.31-11.37,83.32,16.94Zm-81.42-18.2,80.16,16.3,1.67-8.21L260,181.32Z" transform="translate(-2.73 -15.38)" fill="#008fd3"/><path d="M287.65,223.53l-19.48-4,7.47-36.71,19.48,4Zm-17.58-4.14,16.32,3.32,6.83-34.63-16.32-3.32Z" transform="translate(-2.73 -15.38)" fill="#008fd3"/><path d="M320.42,230.19l-19.49-4,7.47-36.71,19.48,4ZM302.84,225l16.32,3.32L326,194.74l-16.32-3.32Z" transform="translate(-2.73 -15.38)" fill="#008fd3"/><path d="M328.41,254.86l-82.3-16.74,1.76-8.67,82.31,16.73Zm-80.4-18L327.16,253l1.12-5.52-79.15-16.09Z" transform="translate(-2.73 -15.38)" fill="#008fd3"/><path d="M329.19,266.62l-88.05-17.91,1.42-7,88.05,17.91ZM243,247.46l84.89,17.26.78-3.82-84.89-17.27Z" transform="translate(-2.73 -15.38)" fill="#008fd3"/><path d="M257.53,261,240,257.39l1.13-5.52,17.56,3.57Zm-15.67-4.83,14.41,2.93.48-2.36-14.4-2.93Z" transform="translate(-2.73 -15.38)" fill="#008fd3"/><rect x="259.74" y="265.4" width="61.12" height="0.92" transform="translate(56.08 -67.9) rotate(11.5)" fill="#008fd3"/><path d="M255.79,269.51l-17.57-3.57,1.13-5.52L256.91,264Zm-15.67-4.83,14.41,2.94.48-2.37-14.4-2.93Z" transform="translate(-2.73 -15.38)" fill="#008fd3"/><rect x="258" y="273.96" width="61.12" height="0.92" transform="translate(57.75 -67.38) rotate(11.5)" fill="#008fd3"/><path d="M254.05,278.07l-17.57-3.57,1.13-5.52,17.56,3.57Zm-15.67-4.83,14.41,2.93.48-2.36-14.4-2.93Z" transform="translate(-2.73 -15.38)" fill="#008fd3"/><rect x="256.26" y="282.52" width="61.12" height="0.92" transform="translate(59.42 -66.86) rotate(11.5)" fill="#008fd3"/><path d="M317.4,243.33c-.73,3.52-4.42,5.61-5.95,8.86a15.87,15.87,0,0,0-1.07,6.09L308.43,304c-.23,5.23-.43,10.61,1.31,15.55s5.89,9.39,11.1,9.87a7.65,7.65,0,0,0,4.67-1c3.07-1.89,3.76-6,4.1-9.55,2.19-23.11,1.95-46.38,1.22-69.58A21.73,21.73,0,0,0,330,243c-1.14-3.28-5.12-8.28-8.57-9.39C315.38,231.62,318,240.21,317.4,243.33Z" transform="translate(-2.73 -15.38)" opacity="0.26" fill="url(#linear-gradient-6)"/><rect x="133.07" y="172.38" width="72.04" height="92.03" rx="7.31" transform="translate(-41.3 20.91) rotate(-11)" fill="#008fd3"/><rect x="124.05" y="167.6" width="76.06" height="36.08" rx="5.87" transform="translate(-35.18 18.97) rotate(-11)" fill="#008fd3"/><rect x="128.06" y="173.82" width="67.56" height="19.99" rx="3.9" transform="translate(-34.84 18.89) rotate(-11)" fill="#fff"/><rect x="137.8" y="212.12" width="14.35" height="10.68" rx="2.02" transform="translate(-41.57 16.29) rotate(-11)" fill="#fff"/><rect x="153.51" y="209.07" width="14.35" height="10.68" rx="2.02" transform="translate(-40.7 19.23) rotate(-11)" fill="#fff"/><rect x="169.22" y="206.01" width="14.35" height="10.68" rx="2.02" transform="translate(-39.83 22.17) rotate(-11)" fill="#fff"/><rect x="140.2" y="224.47" width="14.35" height="10.68" rx="2.02" transform="translate(-43.88 16.97) rotate(-11)" fill="#fff"/><rect x="155.91" y="221.42" width="14.35" height="10.68" rx="2.02" transform="translate(-43.01 19.91) rotate(-11)" fill="#fff"/><rect x="171.62" y="218.36" width="14.35" height="10.68" rx="2.02" transform="translate(-42.14 22.86) rotate(-11)" fill="#fff"/><rect x="142.6" y="236.82" width="14.35" height="10.68" rx="2.02" transform="translate(-46.2 17.66) rotate(-11)" fill="#fff"/><rect x="158.31" y="233.77" width="14.35" height="10.68" rx="2.02" transform="translate(-45.32 20.6) rotate(-11)" fill="#fff"/><rect x="174.02" y="230.71" width="14.35" height="10.68" rx="2.02" transform="translate(-44.45 23.54) rotate(-11)" fill="#fff"/><rect x="145" y="249.17" width="14.35" height="10.68" rx="2.02" transform="translate(-48.51 18.34) rotate(-11)" fill="#fff"/><rect x="160.71" y="246.12" width="14.35" height="10.68" rx="2.02" transform="translate(-47.64 21.28) rotate(-11)" fill="#fff"/><rect x="176.42" y="243.06" width="14.35" height="10.68" rx="2.02" transform="translate(-46.76 24.23) rotate(-11)" fill="#fff"/><rect x="185.21" y="202.89" width="14.25" height="8.22" rx="2.02" transform="translate(-38.7 25.13) rotate(-11)" fill="#fff"/><rect x="186.9" y="211.58" width="14.25" height="8.26" rx="2.02" transform="translate(-40.33 25.62) rotate(-11)" fill="#fff"/><rect x="188.65" y="220.54" width="14.25" height="8.26" rx="2.02" transform="translate(-42.01 26.11) rotate(-11)" fill="#fff"/><rect x="190.39" y="229.51" width="14.25" height="8.26" rx="2.02" transform="translate(-43.69 26.61) rotate(-11)" fill="#fff"/><rect x="192.55" y="238.87" width="14.25" height="11.79" rx="2.02" transform="translate(-45.77 27.23) rotate(-11)" fill="#fff"/><path d="M322.71,240.82c.44,2.55,2.69,4.29,4.85,5.48,5.51,3,11.92,4.7,16.13,9.63A17.19,17.19,0,0,1,346,274c-.47.95-1.16,1.93-2.17,2a3.49,3.49,0,0,1-2.31-1,35.15,35.15,0,0,1-12.14-19.48c-.5-2.19-.85-4.54-2.22-6.26-2.21-2.78-6.49-2.73-9-.49s8.42,53.2,7.12,69.94c-.13,1.64-.28,3.42.53,4.86a5.85,5.85,0,0,0,1.48,1.65c4.48,3.64,10.77,3.52,15.74,1.19s8.9-6.53,12.62-10.74a57.65,57.65,0,0,0,6.93-9.1c5.69-9.83,6-22.56,3.45-34.14-2.05-9.19-5.87-18.12-11.78-25.25a39.29,39.29,0,0,0-17.51-12.42C332.4,233.35,321.37,232.9,322.71,240.82Z" transform="translate(-2.73 -15.38)" fill="url(#linear-gradient-7)"/><rect x="321.19" y="304.35" width="39.12" height="7.72" fill="#fff"/><path d="M366.87,327.32l5.57,74.07c-10.34,5.73-26.74,13.16-38.69,14a77.39,77.39,0,0,1-15.29-.49V327.32Z" transform="translate(-2.73 -15.38)" fill="#008fd3"/><circle cx="384.55" cy="184.61" r="14.13" fill="#008fd3"/><circle cx="380.07" cy="152.9" r="14.13" fill="#008fd3"/><path d="M158.69,95.89a113.41,113.41,0,0,1,15.19,28.27c-16.23,8.29-45.25,22.16-61.69,30a5.27,5.27,0,0,1-3.29.77c-1.3-.27-2.19-1.43-3-2.52Q99.32,143,93.3,133.11c-2.48-4.05-4.14-5.08.07-7.81,3.2-2.08,6.65-3.85,10-5.64C117,112.38,144,100.57,158.69,95.89Z" transform="translate(-2.73 -15.38)" fill="#008fd3"/><path d="M97.27,130.6s3.11-3,3.47-5.88l50.19-23.14s6.21,2.88,8.72,1.92l8,15S166,122,166,124.13l-49.71,24.34s-5.62-.6-8.48-.12Z" transform="translate(-2.73 -15.38)" opacity="0.26" fill="url(#linear-gradient-8)"/><path d="M152.29,138.06a1.8,1.8,0,0,1-.95.95,38.67,38.67,0,0,1-7.43,3.18,5.48,5.48,0,0,1-2.2.29,1,1,0,0,1-.32-.09c-1.48-.4-2.36-2-3-3.44-3.51-7.37-7-14.73-10.48-22.1-.29-.62-.85-1.6-1.44-2.68l-.16-.26a22.68,22.68,0,0,1-2-4.32.6.6,0,0,1-.1-.3.61.61,0,0,1-.09-.26,2.41,2.41,0,0,1,0-1.63c.75-1.61,8.08-3.31,9.75-3.9a3.28,3.28,0,0,1,1.57-.26,2.89,2.89,0,0,1,1.61,1.05c2.84,3,4.48,6.9,6.05,10.73q4.47,11,9,22A1.82,1.82,0,0,1,152.29,138.06Z" transform="translate(-2.73 -15.38)" fill="#fff"/><path d="M70.84,214.25c-4.09,1.91-8.68,4.43-9.54,8.87,4.56-1.49,9,2.41,12.16,6L83,239.59a3.41,3.41,0,0,0,1.48,1.13,3.49,3.49,0,0,0,2.22-.37q15-6.15,29.79-12.9c1.28-.58,2.71-1.33,3.08-2.7a4.81,4.81,0,0,0-.49-3c-2.89-7.4-7.62-33.13-18.28-29.09-4.32,1.65-8,7.93-11.44,10.86C83.8,208.17,77.32,211.23,70.84,214.25Z" transform="translate(-2.73 -15.38)" fill="#008fd3"/><path d="M441.65,305.45a144.78,144.78,0,0,0-42.47-19.21c-1-.28-2.27-.51-3.1.18a3.48,3.48,0,0,0-.91,2.25q-2.06,14.49-4.1,29a4.36,4.36,0,0,0,.14,2.56c.62,1.26,2.21,1.62,3.58,1.89a58.38,58.38,0,0,1,29.82,15.77c3,3,7,6.6,10.83,4.84,3.06-1.4,3.77-5.34,4.09-8.69l2.52-26.9" transform="translate(-2.73 -15.38)" fill="#008fd3"/><path d="M216.49,281.37c3.14-4.49,8-9,13.33-7.85A3.23,3.23,0,0,1,232,274.8c.71,1.14.13,2.61-.45,3.82l-10.69,22.2a59,59,0,0,1-3.82,7.09c-6.09,9.16-17.1,14.65-21.64,24.66-2.85,6.3-3.18,14.34-8.76,18.42-3,2.22-7,2.68-10.79,2.75a66.88,66.88,0,0,1-9.38-.52,12.81,12.81,0,0,1-5.09-1.48,10,10,0,0,1-4.09-6.5,52.76,52.76,0,0,1-.67-7.86c-.91-13.83-8.31-26.62-9.17-40.46-.32-5.14,1-11.29,5.69-13.32,1.65-.7,3.53-.79,5.1-1.64,1.93-1,3.26-3.12,5.37-3.7s4.6.53,6.57-.49c1.75-.9,2.43-3.16,4.14-4.14,1.87-1.08,4.21-.27,6.36-.25,5.27.06,9.4-4.75,11.09-9.73s1.73-10.39,3.24-15.43c.83-2.74,2.73-5.77,5.58-5.64,2.07.09,3.71,1.94,4.25,3.94a15.35,15.35,0,0,1-.05,6.15,259.64,259.64,0,0,0-2.41,31.27c-.06,3.84.12,10.58,5.44,7.48C211.63,289.17,214,284.92,216.49,281.37Z" transform="translate(-2.73 -15.38)" fill="url(#linear-gradient-9)"/><rect x="148.68" y="327.31" width="46.99" height="8.73" fill="#fff"/><path d="M202.66,350.39v47.23c-1.31-.13-2.59-.22-3.89-.32-16.6-1.28-34.41-.53-51.49-2.33V350.39Z" transform="translate(-2.73 -15.38)" fill="#008fd3"/><path d="M323.46,231.15a2,2,0,0,0-1.11-.39,1.79,1.79,0,0,0-1.35,1.12c-1.46,2.82-.23,6.23,1,9.16l10.35,24.31c3.28,7.71,6.6,15.48,11.42,22.32a4.57,4.57,0,0,0,2.75,2.21,3.18,3.18,0,0,0,2.22-.61c2-1.33,2.82-3.95,2.66-6.35a22.79,22.79,0,0,0-2-6.89c-3.22-8-6.33-15-10.25-22.54C335,245.46,331.59,236.1,323.46,231.15Z" transform="translate(-2.73 -15.38)" fill="#008fd3"/><path d="M323.46,231.15a2,2,0,0,0-1.11-.39,1.79,1.79,0,0,0-1.35,1.12c-1.46,2.82-.23,6.23,1,9.16l10.35,24.31c3.28,7.71,6.6,15.48,11.42,22.32a4.57,4.57,0,0,0,2.75,2.21,3.18,3.18,0,0,0,2.22-.61c2-1.33,2.82-3.95,2.66-6.35a22.79,22.79,0,0,0-2-6.89c-3.22-8-6.33-15-10.25-22.54C335,245.46,331.59,236.1,323.46,231.15Z" transform="translate(-2.73 -15.38)" fill="url(#linear-gradient-10)"/><path d="M326.59,248.2a31.72,31.72,0,0,0,5.13,5.1c3.83,3.3,7.66,6.84,10,11.54a60.15,60.15,0,0,1,2.36,5.8c.31.81.81,1.76,1.6,1.74.79-1,.5-2.53.15-3.8a78,78,0,0,0-4.41-12.25,114,114,0,0,0-9.32-15.43,28.4,28.4,0,0,0-3.46-4.44,3.54,3.54,0,0,0-2.28-1.23c-1.92,0-3.54,3-3.36,4.92C323.3,242.88,325.07,246.12,326.59,248.2Z" transform="translate(-2.73 -15.38)" fill="url(#linear-gradient-11)"/><ellipse cx="347.53" cy="285.63" rx="4.47" ry="2.76" transform="translate(-104.98 278.11) rotate(-40.42)" fill="url(#linear-gradient-12)"/><path d="M333.93,234.44s-7.53-1.15-9.6,1.39-.08,9.75,6.52,12.21a52.29,52.29,0,0,1,11.52,6.06S337.92,236,333.93,234.44Z" transform="translate(-2.73 -15.38)" fill="url(#linear-gradient-13)"/><path d="M345.52,286s1.17-2.43,3.34-2.07l3.34,6.5s.27,5.86-3.7,2Z" transform="translate(-2.73 -15.38)" fill="#008fd3"/><path d="M345.52,286s1.17-2.43,3.34-2.07l3.34,6.5s.27,5.86-3.7,2Z" transform="translate(-2.73 -15.38)" fill="url(#linear-gradient-14)"/><path d="M88.61,208.63c2.27-1.2,4.6-2.45,6.19-4.46,1.42-1.82,2.12-4.1,3.37-6s3.46-3.62,5.71-3.09a6.83,6.83,0,0,1,3.59,2.86,42.91,42.91,0,0,1,8.22,19.61c-10.19-1.16-20,3.53-29.32,7.89-3.29,1.55-7,3.1-10.46,2-2.44-.78-4.4-2.77-6.17-4.55-2.8-2.79-1.67-3.35,1.53-5Z" transform="translate(-2.73 -15.38)" opacity="0.26" fill="url(#linear-gradient-15)"/><path d="M140.24,140.17l11.14-4.89a13.7,13.7,0,0,1,.9,3.05c-.12.49-7.32,4.09-9.68,3.83s-3-1.53-3-1.53Z" transform="translate(-2.73 -15.38)" opacity="0.26" fill="url(#linear-gradient-16)"/><path d="M141.39,142.39c-1.48-.4-2.36-2-3-3.44-3.51-7.37-7-14.73-10.48-22.1-.29-.62-.85-1.6-1.44-2.68l-.16-.26c-1.18-2.59-2-4.29-2-4.29l0,0a1.71,1.71,0,0,0-.1-.3.61.61,0,0,1-.09-.26c-.27-.59-.46-1.44,0-1.63.78-.3,2.58,1.7,2.58,1.7l14,30.67Z" transform="translate(-2.73 -15.38)" opacity="0.26" fill="url(#linear-gradient-17)"/><path d="M229.45,42s-2.59,6.25-2.78,8.56.07,26.22,1.53,27.37,70.86,7,70.86,7l3.48-3.27Z" transform="translate(-2.73 -15.38)" fill="#008fd3"/><path d="M229.45,42s-2.59,6.25-2.78,8.56.07,26.22,1.53,27.37,70.86,7,70.86,7l3.48-3.27Z" transform="translate(-2.73 -15.38)" opacity="0.26" fill="url(#linear-gradient-18)"/><path d="M304.28,49.64a113.68,113.68,0,0,1-1.74,32c-18.18-1.37-50.17-4.63-68.3-6.47A5.32,5.32,0,0,1,231,74.15c-1-.9-1.12-2.36-1.2-3.68q-.75-11.53-.75-23.08c0-4.76-.89-6.5,4.13-6.64,3.81-.11,7.68.18,11.48.39C260.1,42,289.28,46,304.28,49.64Z" transform="translate(-2.73 -15.38)" fill="#008fd3"/><path d="M233.77,47.31s4.21-.94,6-3.21l54.9,6.35s3.81,5.69,6.45,6.18l-1,17s-3.23,2.1-4.36,3.94L240.7,72.45s-4.49-3.43-7.19-4.51Z" transform="translate(-2.73 -15.38)" opacity="0.26" fill="url(#linear-gradient-19)"/><path d="M276.86,82.31a1.75,1.75,0,0,1-1.3.32,38.69,38.69,0,0,1-8-1.15,5.73,5.73,0,0,1-2-.89.92.92,0,0,1-.23-.26c-1.06-1.1-1-2.93-.78-4.5.84-8.11,1.71-16.21,2.55-24.32.07-.68.11-1.81.17-3,0-.12,0-.19,0-.31a22.4,22.4,0,0,1,.55-4.73.45.45,0,0,1,.07-.3.54.54,0,0,1,.05-.27,2.46,2.46,0,0,1,.88-1.38c1.48-1,8.62,1.38,10.35,1.75a3.11,3.11,0,0,1,1.48.59,2.91,2.91,0,0,1,.83,1.73c.88,4,.23,8.23-.42,12.32q-1.89,11.67-3.77,23.42A1.75,1.75,0,0,1,276.86,82.31Z" transform="translate(-2.73 -15.38)" fill="#fff"/><path d="M265.48,77.84l12.06,1.62a13.69,13.69,0,0,1-.82,3.08c-.36.35-8.38-.32-10.26-1.77s-1.76-2.86-1.76-2.86Z" transform="translate(-2.73 -15.38)" opacity="0.26" fill="url(#linear-gradient-20)"/><path d="M265.31,80.33c-1.06-1.1-1-2.93-.78-4.5.84-8.11,1.71-16.21,2.55-24.32.07-.68.11-1.81.17-3,0-.12,0-.19,0-.31.34-2.82.56-4.68.56-4.68v0s0-.17.07-.3a.54.54,0,0,1,.05-.27c.08-.64.36-1.47.88-1.38.82.15,1.32,2.79,1.32,2.79l-4,33.48Z" transform="translate(-2.73 -15.38)" opacity="0.26" fill="url(#linear-gradient-21)"/><path d="M420.46,224.86s6.49,1.88,8.81,1.82,26.05-3,27-4.54-.83-71.2-.83-71.2l-3.64-3.1Z" transform="translate(-2.73 -15.38)" fill="#008fd3"/><path d="M420.46,224.86s6.49,1.88,8.81,1.82,26.05-3,27-4.54-.83-71.2-.83-71.2l-3.64-3.1Z" transform="translate(-2.73 -15.38)" opacity="0.26" fill="url(#linear-gradient-22)"/><path d="M419.8,149.64a113.68,113.68,0,0,1,32-1.8c.65,18.22.93,50.37,1.11,68.6a5.34,5.34,0,0,1-.7,3.31c-.79,1.06-2.23,1.38-3.53,1.61q-11.37,2-22.86,3.28c-4.72.53-6.36,1.6-7.05-3.37-.53-3.77-.67-7.65-.88-11.45C417.1,194.39,417.81,165,419.8,149.64Z" transform="translate(-2.73 -15.38)" fill="#008fd3"/><path d="M425.26,220s-1.4-4.08-3.85-5.62l.26-55.27s5.24-4.42,5.43-7.1l17-.91s2.44,3,4.4,3.9l1,55.34s-2.92,4.84-3.7,7.64Z" transform="translate(-2.73 -15.38)" opacity="0.26" fill="url(#linear-gradient-23)"/><path d="M455.3,173.29a1.79,1.79,0,0,1,.46,1.26,37.67,37.67,0,0,1-.27,8.08,5.42,5.42,0,0,1-.66,2.11.9.9,0,0,1-.22.25c-1,1.17-2.81,1.29-4.39,1.28-8.16,0-16.3.08-24.45.14-.69,0-1.82.09-3,.17l-.31,0a23.56,23.56,0,0,1-4.76,0,.52.52,0,0,1-.31,0,.55.55,0,0,1-.28,0,2.52,2.52,0,0,1-1.47-.72c-1.13-1.36.43-8.72.6-10.49a3.26,3.26,0,0,1,.43-1.53,2.89,2.89,0,0,1,1.63-1c3.9-1.32,8.15-1.14,12.29-.95,7.87.39,15.77.8,23.69,1.17A1.79,1.79,0,0,1,455.3,173.29Z" transform="translate(-2.73 -15.38)" fill="#fff"/><path d="M452.12,185.1l.27-12.17a13.64,13.64,0,0,1,3.15.48c.39.31.61,8.36-.62,10.39s-2.65,2.07-2.65,2.07Z" transform="translate(-2.73 -15.38)" opacity="0.26" fill="url(#linear-gradient-24)"/><path d="M454.61,185c-1,1.17-2.81,1.29-4.39,1.28-8.16,0-16.3.08-24.45.14-.69,0-1.82.09-3,.17l-.31,0-4.72,0,0,0c-.06,0-.18,0-.31,0a.55.55,0,0,1-.28,0c-.64,0-1.5-.19-1.47-.72.07-.84,2.64-1.62,2.64-1.62l33.72.28Z" transform="translate(-2.73 -15.38)" opacity="0.26" fill="url(#linear-gradient-25)"/><path d="M153.64,192.36l-.21-1,1.07-1.54c2.58-3.65,3.7-5.53,3.35-7.41a2.26,2.26,0,0,0-2.95-1.94,4.27,4.27,0,0,0-2.42,1.57l-.78-1.08a5.59,5.59,0,0,1,3.27-2,3.56,3.56,0,0,1,4.52,2.86c.45,2.29-.85,4.47-3,7.51l-.81,1.12v0l5.58-1.09.28,1.39Z" transform="translate(-2.73 -15.38)" fill="#008fd3"/><path d="M164.19,189.05a7,7,0,0,0,1.34-.32,4.8,4.8,0,0,0,2.36-1.71,5.55,5.55,0,0,0,1-3.63h-.06a3.74,3.74,0,0,1-2.66,1.91,3.67,3.67,0,0,1-4.42-3.08,4.34,4.34,0,0,1,3.37-5.25c2.54-.5,4.52,1.25,5.14,4.43a8,8,0,0,1-1,6.25A6.26,6.26,0,0,1,166,190a7.67,7.67,0,0,1-1.52.4Zm-.8-7.26A2.44,2.44,0,0,0,166.3,184a2.85,2.85,0,0,0,2.19-1.79,1.2,1.2,0,0,0,0-.64c-.42-2.12-1.52-3.59-3.28-3.25C163.81,178.57,163,180,163.39,181.79Z" transform="translate(-2.73 -15.38)" fill="#008fd3"/><path d="M178.87,174.49l.22,1.11L175.9,188l-1.73.34,3.22-12v0l-6.07,1.19L171,176Z" transform="translate(-2.73 -15.38)" fill="#008fd3"/><path d="M183.07,184.57a5.76,5.76,0,0,0,2.91.24c2.16-.43,2.56-1.94,2.34-3-.36-1.74-2.08-2.17-3.7-1.86l-.94.19-.25-1.26.94-.19c1.22-.24,2.65-1.17,2.36-2.64-.2-1-1-1.75-2.55-1.45a4.75,4.75,0,0,0-2.32,1.31l-.68-1.14a6,6,0,0,1,3-1.59c2.45-.48,3.85.75,4.14,2.26a3.14,3.14,0,0,1-1.71,3.38v0a3.3,3.3,0,0,1,3.41,2.64c.39,2-.82,4-3.8,4.62a6.41,6.41,0,0,1-3.4-.2Z" transform="translate(-2.73 -15.38)" fill="#008fd3"/><g opacity="0.24" style="isolation:isolate"><path d="M343.76,135.9v-9.5c-13-1.05-20.56-8.46-21.64-18.49h9.52c1.41,6.48,6.06,10.24,12.12,11.18V93.81c-14.39-4.17-20-9.39-20-19.1,0-10.55,8.44-17.55,20-18.28v-7.1h6.16v7.2c14.39,1.36,19,10.34,19.69,16.82h-9.3c-1.19-4.28-3.79-8.46-10.39-9.61V86.51c16.56,4.59,21.32,11.27,21.32,20.57,0,11.59-8,18.38-21.32,19.32v9.5Zm0-51.17V63.53c-7.79.63-10.6,5.12-10.6,10.13S335.65,82,343.76,84.73Zm6.16,10.86v23.6c7.47-.73,11.47-4.38,11.47-11.17C361.39,102.48,358.9,98.62,349.92,95.59Z" transform="translate(-2.73 -15.38)" fill="#008fd3"/></g><path d="M346.74,135.18v-9.51c-13-1-20.55-8.45-21.63-18.48h9.52c1.4,6.48,6.05,10.24,12.11,11.18V93.09c-14.38-4.17-20-9.39-20-19.1,0-10.55,8.44-17.55,20-18.28v-7.1h6.17v7.2c14.39,1.36,19,10.34,19.69,16.82h-9.3c-1.2-4.28-3.79-8.46-10.39-9.61V85.79c16.55,4.59,21.31,11.27,21.31,20.57,0,11.59-8,18.38-21.31,19.31v9.51Zm0-51.17V62.81c-7.79.63-10.6,5.12-10.6,10.13S338.63,81.29,346.74,84Zm6.17,10.86v23.6c7.47-.73,11.46-4.39,11.46-11.17C364.37,101.76,361.89,97.9,352.91,94.87Z" transform="translate(-2.73 -15.38)" fill="#fff"/><g opacity="0.24" style="isolation:isolate"><path d="M239.28,139.7v-6.14c-8.38-.68-13.27-5.47-14-11.94h6.15a9,9,0,0,0,7.82,7.22V112.51c-9.29-2.69-12.92-6.07-12.92-12.34,0-6.81,5.45-11.33,12.92-11.8V83.78h4v4.66c9.3.87,12.3,6.67,12.72,10.86h-6a7.87,7.87,0,0,0-6.71-6.21v14.7c10.69,3,13.77,7.29,13.77,13.29,0,7.49-5.17,11.87-13.77,12.48v6.14Zm0-33V93c-5,.4-6.85,3.3-6.85,6.54S234,104.89,239.28,106.65Zm4,7V128.9c4.83-.47,7.41-2.83,7.41-7.21C250.67,118.11,249.06,115.62,243.26,113.66Z" transform="translate(-2.73 -15.38)" fill="#008fd3"/></g><path d="M241.21,139.23v-6.14c-8.38-.67-13.27-5.46-14-11.94h6.14a9,9,0,0,0,7.83,7.22V112.05c-9.29-2.7-12.93-6.07-12.93-12.34,0-6.81,5.45-11.33,12.93-11.81V83.32h4V88c9.3.88,12.3,6.68,12.72,10.86h-6a7.89,7.89,0,0,0-6.71-6.2v14.7c10.69,3,13.77,7.28,13.77,13.28,0,7.49-5.17,11.88-13.77,12.48v6.14Zm0-33V92.49c-5,.41-6.85,3.31-6.85,6.54S236,104.43,241.21,106.18Zm4,7v15.24c4.82-.47,7.41-2.83,7.41-7.22C252.6,117.65,251,115.15,245.19,113.2Z" transform="translate(-2.73 -15.38)" fill="#fff"/><g opacity="0.24" style="isolation:isolate"><path d="M173.79,95.48V90.29c-7.09-.58-11.23-4.63-11.82-10.1h5.2a7.59,7.59,0,0,0,6.62,6.1V72.48c-7.86-2.28-10.94-5.13-10.94-10.44,0-5.76,4.61-9.59,10.94-10V48.18h3.37v3.93c7.86.74,10.4,5.65,10.76,9.19h-5.09a6.66,6.66,0,0,0-5.67-5.25V68.49c9,2.51,11.64,6.16,11.64,11.24,0,6.33-4.37,10-11.64,10.56v5.19Zm0-28V55.94c-4.26.34-5.79,2.79-5.79,5.53S169.36,66,173.79,67.52Zm3.37,5.93v12.9c4.08-.4,6.26-2.4,6.26-6.11C183.42,77.22,182.07,75.11,177.16,73.45Z" transform="translate(-2.73 -15.38)" fill="#008fd3"/></g><path d="M175.42,95.08V89.89c-7.09-.57-11.23-4.62-11.82-10.1h5.2a7.6,7.6,0,0,0,6.62,6.11V72.09c-7.86-2.28-10.93-5.14-10.93-10.44,0-5.77,4.61-9.59,10.93-10V47.78h3.37v3.94c7.86.74,10.4,5.65,10.76,9.18h-5.08a6.67,6.67,0,0,0-5.68-5.24V68.09c9,2.51,11.65,6.17,11.65,11.25,0,6.33-4.38,10-11.65,10.55v5.19Zm0-27.95V55.54c-4.26.34-5.79,2.8-5.79,5.54S171,65.64,175.42,67.13Zm3.37,5.93V86c4.08-.39,6.27-2.39,6.27-6.1C185.06,76.83,183.7,74.71,178.79,73.06Z" transform="translate(-2.73 -15.38)" fill="#fff"/></svg>