<svg id="Layer_1" data-name="Layer 1" xmlns="http://www.w3.org/2000/svg" xmlns:xlink="http://www.w3.org/1999/xlink" viewBox="0 0 564.67 470.98"><defs><linearGradient id="linear-gradient" x1="297.17" y1="531.92" x2="302.89" y2="67.11" gradientUnits="userSpaceOnUse"><stop offset="0.15" stop-color="#010101" stop-opacity="0"/><stop offset="0.95" stop-color="#010101"/></linearGradient><linearGradient id="linear-gradient-2" x1="367.6" y1="177.91" x2="322.92" y2="476.53" xlink:href="#linear-gradient"/><linearGradient id="linear-gradient-3" x1="98.43" y1="228.19" x2="428.93" y2="235.81" gradientUnits="userSpaceOnUse"><stop offset="0" stop-color="#fff" stop-opacity="0"/><stop offset="0.12" stop-color="#fff" stop-opacity="0.22"/><stop offset="0.27" stop-color="#fff" stop-opacity="0.45"/><stop offset="0.41" stop-color="#fff" stop-opacity="0.65"/><stop offset="0.54" stop-color="#fff" stop-opacity="0.8"/><stop offset="0.66" stop-color="#fff" stop-opacity="0.91"/><stop offset="0.76" stop-color="#fff" stop-opacity="0.98"/><stop offset="0.84" stop-color="#fff"/></linearGradient><linearGradient id="linear-gradient-4" x1="207.29" y1="167.23" x2="210.04" y2="205.18" xlink:href="#linear-gradient-3"/><linearGradient id="linear-gradient-5" x1="207.29" y1="184.53" x2="210.04" y2="222.48" xlink:href="#linear-gradient-3"/><linearGradient id="linear-gradient-6" x1="207.29" y1="201.83" x2="210.04" y2="239.78" xlink:href="#linear-gradient-3"/><linearGradient id="linear-gradient-7" x1="207.29" y1="219.14" x2="210.04" y2="257.09" xlink:href="#linear-gradient-3"/><linearGradient id="linear-gradient-8" x1="207.29" y1="236.44" x2="210.04" y2="274.39" xlink:href="#linear-gradient-3"/><linearGradient id="linear-gradient-9" x1="225.49" y1="152.07" x2="243.05" y2="148.96" gradientUnits="userSpaceOnUse"><stop offset="0" stop-color="#010101" stop-opacity="0"/><stop offset="0.95" stop-color="#010101"/></linearGradient><linearGradient id="linear-gradient-10" x1="250.32" y1="150.33" x2="243.21" y2="169.66" xlink:href="#linear-gradient-9"/><linearGradient id="linear-gradient-11" x1="250.91" y1="330.64" x2="230.59" y2="523.67" xlink:href="#linear-gradient-9"/><linearGradient id="linear-gradient-12" x1="292.4" y1="335.01" x2="272.08" y2="528.04" xlink:href="#linear-gradient-9"/><linearGradient id="linear-gradient-13" x1="255.12" y1="355.72" x2="271.11" y2="272.41" xlink:href="#linear-gradient-9"/><linearGradient id="linear-gradient-14" x1="227.04" y1="328.14" x2="249.83" y2="328.14" xlink:href="#linear-gradient-9"/><linearGradient id="linear-gradient-15" x1="314.11" y1="231.73" x2="143.15" y2="279.36" xlink:href="#linear-gradient-9"/><linearGradient id="linear-gradient-16" x1="240.41" y1="138.08" x2="262.41" y2="163.19" xlink:href="#linear-gradient-9"/><linearGradient id="linear-gradient-17" x1="289.26" y1="219.25" x2="236.6" y2="251.91" xlink:href="#linear-gradient-9"/><linearGradient id="linear-gradient-18" x1="446.45" y1="58.87" x2="114.75" y2="420.64" xlink:href="#linear-gradient-9"/><linearGradient id="linear-gradient-19" x1="385.49" y1="152" x2="502.83" y2="-21.26" xlink:href="#linear-gradient-9"/><linearGradient id="linear-gradient-20" x1="427.04" y1="108.92" x2="536.25" y2="101.75" xlink:href="#linear-gradient-9"/><linearGradient id="linear-gradient-21" x1="276.9" y1="160.46" x2="285.47" y2="302.38" xlink:href="#linear-gradient-3"/><linearGradient id="linear-gradient-22" x1="251.63" y1="175.57" x2="221.39" y2="202.24" xlink:href="#linear-gradient-9"/></defs><title>Share</title><path d="M563.71,206.68C556.37,253.23,525.79,295,526,342.16c.06,21.92,6.86,44.22,1.59,65.49a61.5,61.5,0,0,1-5.69,14.52c-8.93,16.34-24.89,28.89-42.32,36.23-22.22,9.37-46.78,11.5-70.87,13a1735.16,1735.16,0,0,1-218.73-.34c-13.66-.88-27.5-2-40.39-6.63-17.25-6.26-31.59-18.54-45.5-30.55-.64-.57-1.32-1.12-2-1.69C56.9,393.07,9.33,348.46,1.55,289.32-5.79,233.2,25,179.86,55.24,132c25.27-40.06,52.43-81.33,93.4-105.11C191.73,1.79,244.88-.35,294,8.28c37.61,6.6,73.78,19,110,30.75,26,8.42,55,10.28,80.17,19.52C539.86,79,572.5,150.87,563.71,206.68Z" transform="translate(-0.46 -3.69)" fill="#0078c9" opacity="0.24" style="isolation:isolate"/><path d="M521.86,422.17c-8.93,16.34-24.89,28.89-42.32,36.23-22.22,9.37-46.78,11.5-70.87,13a1735.16,1735.16,0,0,1-218.73-.34c-13.66-.88-27.5-2-40.39-6.63-17.25-6.26-31.59-18.54-45.5-30.55-.64-.57-1.32-1.12-2-1.69a27.51,27.51,0,0,1,10.79-6.46c30.85-10.66,70.74-9.85,103.11-11.87,71.82-4.54,143.9-2.47,215.72,1.89C461.75,417.57,491.82,419.8,521.86,422.17Z" transform="translate(-0.46 -3.69)" fill="#0078c9" opacity="0.42" style="isolation:isolate"/><path d="M140.7,447c27,17.5,61.87,13.33,94,12.3,37.78-1.21,75.59,2.82,113.38,1.56s76.62-8.33,108-29.45c-4.47-3.69-10.72-4.08-16.51-4.31-60.11-2.31-120.52-6.62-180.67-6.63-17.62,0-34.77,2.22-52.21,4.5-12.52,1.64-25.51,2.42-37.71,5.85C165.87,431.72,138.36,445.4,140.7,447Z" transform="translate(-0.46 -3.69)" fill="url(#linear-gradient)"/><rect x="295.73" y="232.17" width="112.93" height="97.4" rx="12.34" fill="#0078c9"/><rect x="295.73" y="232.17" width="112.93" height="97.4" rx="12.34" fill="url(#linear-gradient-2)"/><path d="M401.54,252.45v59.81a6.37,6.37,0,0,1-.38,2.13l-.6-30-18.44-14.58-22.53,25.37-6.36-2.2,11.13-14-21-15.25-40,29.09V252.45a6.73,6.73,0,0,1,6.73-6.73h84.74A6.72,6.72,0,0,1,401.54,252.45Z" transform="translate(-0.46 -3.69)" fill="#0078c9"/><rect x="159.1" y="159.57" width="93.32" height="142.2" rx="7.47" fill="#0078c9"/><rect x="159.1" y="159.57" width="93.32" height="142.2" rx="7.47" fill="url(#linear-gradient-3)"/><rect x="175.31" y="176.86" width="65.72" height="5.08" rx="2.54" fill="url(#linear-gradient-4)"/><rect x="175.31" y="194.16" width="65.72" height="5.08" rx="2.54" fill="url(#linear-gradient-5)"/><rect x="175.31" y="211.46" width="65.72" height="5.08" rx="2.54" fill="url(#linear-gradient-6)"/><rect x="175.31" y="228.76" width="65.72" height="5.08" rx="2.54" fill="url(#linear-gradient-7)"/><rect x="175.31" y="246.07" width="65.72" height="5.08" rx="2.54" fill="url(#linear-gradient-8)"/><path d="M230.78,133.6a11.25,11.25,0,0,0-5.27,3.92,16.31,16.31,0,0,0-3.2,12.45c.49,3.05,1.84,5.89,2.76,8.84s1.41,6.24.17,9.07a1.5,1.5,0,0,0-.19,1.22,1.12,1.12,0,0,0,1.23.43c1.94-.36,2.83-2.56,3.39-4.45.83.45.84,2.22,1.76,2a1.08,1.08,0,0,0,.5-.4,5.56,5.56,0,0,0,1.16-3,3.22,3.22,0,0,1,1.29.86,4,4,0,0,0,2-3.53c.08-1.41-.25-2.81-.31-4.22-.16-4,1.83-7.64,3.1-11.4,1-3,1.88-7.8-.46-10.47C237,133,233,132.89,230.78,133.6Z" transform="translate(-0.46 -3.69)" fill="#606161"/><path d="M230.78,133.6a11.25,11.25,0,0,0-5.27,3.92,16.31,16.31,0,0,0-3.2,12.45c.49,3.05,1.84,5.89,2.76,8.84s1.41,6.24.17,9.07a1.5,1.5,0,0,0-.19,1.22,1.12,1.12,0,0,0,1.23.43c1.94-.36,2.83-2.56,3.39-4.45.83.45.84,2.22,1.76,2a1.08,1.08,0,0,0,.5-.4,5.56,5.56,0,0,0,1.16-3,3.22,3.22,0,0,1,1.29.86,4,4,0,0,0,2-3.53c.08-1.41-.25-2.81-.31-4.22-.16-4,1.83-7.64,3.1-11.4,1-3,1.88-7.8-.46-10.47C237,133,233,132.89,230.78,133.6Z" transform="translate(-0.46 -3.69)" fill="url(#linear-gradient-9)"/><ellipse cx="251.01" cy="148.46" rx="18.16" ry="22.66" fill="#606161"/><ellipse cx="251.01" cy="148.46" rx="18.16" ry="22.66" fill="url(#linear-gradient-10)"/><path d="M270.46,147.56a77.28,77.28,0,0,1-.11,9.87,13.14,13.14,0,0,0,4.08,11,9.39,9.39,0,0,1-2.8-.08,3.15,3.15,0,0,1-2.19-1.6,6,6,0,0,0,4.22,2.95c-1.92.83-7,2.6-7.32-.64-.13-1.24.39-2.67.49-3.92.13-1.69.16-3.39.24-5.08l.65-13.61" transform="translate(-0.46 -3.69)" fill="#606161"/><path d="M314.47,195.08s.24-6.76,1.12-8.21c.78-1.29,2-4.77,2.93-4.62,1.65.26-1.11,7.48,3.29,4.75.69-.43,4.4-2.28,7-1.54a3.84,3.84,0,0,1,2.49,5.16c-.78,1.44-4.71,4-7,5.06s-4.7,2.77-5.74,4.48" transform="translate(-0.46 -3.69)" fill="#f5c7c8"/><path d="M271.37,189.37s5.57,5.54,7.65,9,11.63,17.7,12.58,18.15,23.23-22.86,23.23-22.86,2.83,1.46,3.79,6.48c0,0-10.63,28.65-22.43,35.7S271,213.28,271,213.28" transform="translate(-0.46 -3.69)" fill="#f5c7c8"/><path d="M246.67,403.5l-1.61,11.11c-1.49-.5-4.5-.19-7.72-.18a10.25,10.25,0,0,1-5.83-2.12l2-10.34,3.59-51.12,19.36,2.8Z" transform="translate(-0.46 -3.69)" fill="#f5c7c8"/><path d="M227.87,428.79a2.5,2.5,0,0,0,.19,1,2.46,2.46,0,0,0,1,.95,49.8,49.8,0,0,0,12.82,5.43,16.73,16.73,0,0,0,5.7.71,7.15,7.15,0,0,0,5-2.49c1.56-2,1.57-4.84.67-7.19a22.16,22.16,0,0,0-4.19-6.23l-3.59-4.2a7,7,0,0,0-2.1-1.9c-2.85-1.46-10.44-1.53-13.11.64C226.93,418.3,227.71,425,227.87,428.79Z" transform="translate(-0.46 -3.69)" fill="#0078c9"/><path d="M269.78,429.11a2.67,2.67,0,0,0,.18,1,2.56,2.56,0,0,0,1,.94,49.55,49.55,0,0,0,12.83,5.44,16.73,16.73,0,0,0,5.7.71,7.19,7.19,0,0,0,5-2.49c1.55-2,1.56-4.84.67-7.19a22.23,22.23,0,0,0-4.19-6.23l-3.59-4.2a7.34,7.34,0,0,0-2.1-1.91c-2.85-1.45-10.44-1.52-13.11.65C268.84,418.62,269.62,425.32,269.78,429.11Z" transform="translate(-0.46 -3.69)" fill="#0078c9"/><path d="M227.87,428.79a2.5,2.5,0,0,0,.19,1,2.46,2.46,0,0,0,1,.95,49.8,49.8,0,0,0,12.82,5.43,16.73,16.73,0,0,0,5.7.71,7.15,7.15,0,0,0,5-2.49c1.56-2,1.57-4.84.67-7.19a22.16,22.16,0,0,0-4.19-6.23l-3.59-4.2a7,7,0,0,0-2.1-1.9c-2.85-1.46-10.44-1.53-13.11.64C226.93,418.3,227.71,425,227.87,428.79Z" transform="translate(-0.46 -3.69)" fill="url(#linear-gradient-11)"/><path d="M269.78,429.11a2.67,2.67,0,0,0,.18,1,2.56,2.56,0,0,0,1,.94,49.55,49.55,0,0,0,12.83,5.44,16.73,16.73,0,0,0,5.7.71,7.19,7.19,0,0,0,5-2.49c1.55-2,1.56-4.84.67-7.19a22.23,22.23,0,0,0-4.19-6.23l-3.59-4.2a7.34,7.34,0,0,0-2.1-1.91c-2.85-1.45-10.44-1.52-13.11.65C268.84,418.62,269.62,425.32,269.78,429.11Z" transform="translate(-0.46 -3.69)" fill="url(#linear-gradient-12)"/><path d="M284,403.1l.38,10.44a23,23,0,0,0-6.84,1.08,10.16,10.16,0,0,1-6.17-.61l-.61-10.51-4-47.32,19.07,1.87Z" transform="translate(-0.46 -3.69)" fill="#f5c7c8"/><path d="M244.37,167.26l-.78,16.45a8.59,8.59,0,0,0,7.84,3.69c7.94-.89,7.59-3.24,7.59-3.24s0-11.88.32-14.54" transform="translate(-0.46 -3.69)" fill="#f5c7c8"/><path d="M246.26,172.62l-1.83-3.32L259.34,171c-.12,1-.19,3.38-.24,5.91A11.87,11.87,0,0,1,246.26,172.62Z" transform="translate(-0.46 -3.69)" fill="#dbb4af"/><path d="M232.61,286.32s-2.39,45.27-5.57,81.92c0,0,43.77,6.3,61.65-.71,0,0-3.84-73-4.65-83.48Z" transform="translate(-0.46 -3.69)" fill="#606161"/><path d="M288.69,367.52c-9.92,3.9-27.84,3.69-41.81,2.72-11.17-.76-19.84-2-19.84-2,3.18-36.63,5.57-81.92,5.57-81.92l6.55-.28,44.89-2C284.86,294.53,288.69,367.52,288.69,367.52Z" transform="translate(-0.46 -3.69)" fill="url(#linear-gradient-13)"/><path d="M249.53,370.19c-.87,0-1.77,0-2.65.05-11.17-.76-19.84-2-19.84-2,3.18-36.63,5.57-81.92,5.57-81.92l6.55-.28a1.17,1.17,0,0,1,.31.12c11.48,5.28,10.18,19.67,10.35,30.42C250.1,334.47,246.81,352.48,249.53,370.19Z" transform="translate(-0.46 -3.69)" fill="url(#linear-gradient-14)"/><path d="M233.18,186.86s2.15.1,10.72-1.47c8-1.47,11-.74,16.83.37,10.59,2,11.79,2.67,13.38,4,3.83,3.31,10.33,92.15,10.33,92.15s6.5,10.67-27.16,14.11c-12.46,1.27-24.48-7.36-24.48-7.36Z" transform="translate(-0.46 -3.69)" fill="#0078c9"/><path d="M277.56,271.8c-3.56,2.37-8.12,2.5-12.38,2.44-7.85-.17-15.84-.82-23.28-3.39.07,1.32.14,2.68.24,4a50.39,50.39,0,0,0,1.62,11.23,52,52,0,0,0,4.23,9.5A76.78,76.78,0,0,1,235.3,291a4.38,4.38,0,0,1-2.13-1.59,4.78,4.78,0,0,1-.47-2.47q-.36-31.11-.68-62.14c-.06-5,0-10.46,2.91-14.58a6.14,6.14,0,0,1,4.47-2.95c5.44-.3,2.54,7.92,2.4,10.83-.34,6.32-.54,12.62-.61,18.94q-.15,11.47.24,22.94a38,38,0,0,0,14.34,2c8.39-.5,16.61-3.55,25-2.77a1.37,1.37,0,0,1,1.52,1.42A11.39,11.39,0,0,1,277.56,271.8Z" transform="translate(-0.46 -3.69)" fill="url(#linear-gradient-15)"/><path d="M217.06,243.63c0,5.35,2.9,10.4,6.85,14s8.88,6,13.82,8c11.06,4.58,23.48,7.91,34.9,4.31,1.67-.53,3.6-1.67,3.43-3.41a112.51,112.51,0,0,0-13.21-1.29,3.42,3.42,0,0,0-5.28-3.4,9.77,9.77,0,0,1-1.85,1.32,4,4,0,0,1-3.08-.55,123.79,123.79,0,0,1-13.71-7.72c-3.44-2.24-7.13-5.31-7.06-9.41,0-1.84.77-3.92-.38-5.34a4.33,4.33,0,0,0-1.47-1.06c-2.43-1.25-7-3.17-9.8-2.27C217.68,237.65,217.07,241.3,217.06,243.63Z" transform="translate(-0.46 -3.69)" fill="#f5c7c8"/><path d="M238.17,140.62s.65,21.07,6.78,28.28c6.47,7.61,10.15,8.54,18,5.43,6.67-2.65,7.47-20.91,7.69-26.16C271.21,134.52,250.29,122.77,238.17,140.62Z" transform="translate(-0.46 -3.69)" fill="#f5c7c8"/><path d="M239.8,181.73l-.14,3.86a1.59,1.59,0,0,0,.88,1.49s6,2,16.51,2.6l7.68-1.93a1.6,1.6,0,0,0,.95-1.38l.11-1.91a1.63,1.63,0,0,0-1.43-1.7l-22.76-2.57A1.61,1.61,0,0,0,239.8,181.73Z" transform="translate(-0.46 -3.69)" fill="#0078c9"/><path d="M240.6,154s-.34-3.17-3.46-1.8-.19,6.9,1,8.4,3.55,1.05,3.55,1.05" transform="translate(-0.46 -3.69)" fill="#f5c7c8"/><path d="M270.24,134a12,12,0,0,1,3.1,9.07c-.41,4.07-3.28,7.12-7.55,6.58,0,0,2.13-4.27-.6-6.35,0,0-.75,5-5.85,5.44l-3.27-.23s1.14-4.56,0-5.81-2.74,6.38-5.7,7a18.29,18.29,0,0,1-3.77.51c-.68.12-3-4-3-4.1a9.92,9.92,0,0,1,.3,2.31,28.86,28.86,0,0,1,.39,4c.09,3.24.1,6.49,0,9.74a15.78,15.78,0,0,1-1.34,7c-1.12,2.12-3.5,3.76-5.84,3.28,2-1.17,2.81-3.64,3-5.94a31.44,31.44,0,0,0-.62-8.89c-.42-2.34-.13-5.62-1.34-7.76-3.7-6.51-.06-14.6,6.25-17.7,6.85-3.38,16.75-4.74,23.43-.22A12.25,12.25,0,0,1,270.24,134Z" transform="translate(-0.46 -3.69)" fill="#606161"/><path d="M270.24,134a12,12,0,0,1,3.1,9.07c-.41,4.07-3.28,7.12-7.55,6.58,0,0,2.13-4.27-.6-6.35,0,0-.75,5-5.85,5.44l-3.27-.23s1.14-4.56,0-5.81-2.74,6.38-5.7,7a18.29,18.29,0,0,1-3.77.51c-.68.12-3-4-3-4.1a9.92,9.92,0,0,1,.3,2.31,28.86,28.86,0,0,1,.39,4c.09,3.24.1,6.49,0,9.74a15.78,15.78,0,0,1-1.34,7c-1.12,2.12-3.5,3.76-5.84,3.28,2-1.17,2.81-3.64,3-5.94a31.44,31.44,0,0,0-.62-8.89c-.42-2.34-.13-5.62-1.34-7.76-3.7-6.51-.06-14.6,6.25-17.7,6.85-3.38,16.75-4.74,23.43-.22A12.25,12.25,0,0,1,270.24,134Z" transform="translate(-0.46 -3.69)" fill="url(#linear-gradient-16)"/><path d="M233.18,186.86s-3.74,5.9-10.42,26.91c-2.48,7.8-7.18,25.25-7.18,25.25s9.87,3.38,16.84,3.38c3.12-18.1,10.61-25.1,12-33.45S237.37,185.25,233.18,186.86Z" transform="translate(-0.46 -3.69)" fill="#0078c9"/><path d="M291.34,212.4a5,5,0,0,1,.72,1.62,4.91,4.91,0,0,1-.08,1.62,122.1,122.1,0,0,1-5.45,20.94c-3.59-4-8.6-6.76-11.14-11.48a27.27,27.27,0,0,1-2.19-6.45A82.34,82.34,0,0,1,270.53,204c-.15-2.53-.53-12.58,2.81-13.53,3-.85,8.34,7.33,9.83,9.33C286.16,203.8,288.75,208.1,291.34,212.4Z" transform="translate(-0.46 -3.69)" fill="#0078c9"/><path d="M276.06,211.94c1.63,4.41,2.07,9.17,2.36,13.87a6.38,6.38,0,0,0,2.39,5.69l5.45,5.08c.49-.16.73-.71.9-1.19.9-2.53,1.77-5.07,2.59-7.62,1.09-3.39.22-3.38-2.53-5.32A54.83,54.83,0,0,1,276.06,211.94Z" transform="translate(-0.46 -3.69)" fill="url(#linear-gradient-17)"/><path d="M426.41,190.7H328.9a7.64,7.64,0,0,1-7.63-7.64V85.2a7.64,7.64,0,0,1,7.63-7.64h40.76a7.64,7.64,0,0,1,7.64,7.64h0a7.64,7.64,0,0,1-7.64,7.64H344.18a7.64,7.64,0,0,0-7.64,7.64v67.3a7.64,7.64,0,0,0,7.64,7.64h66.95a7.64,7.64,0,0,0,7.64-7.64v-23a7.64,7.64,0,0,1,7.64-7.64h0a7.64,7.64,0,0,1,7.64,7.64v38.24A7.64,7.64,0,0,1,426.41,190.7Z" transform="translate(-0.46 -3.69)" fill="#0078c9"/><path d="M427,190.7H327.92a6.86,6.86,0,0,1-6.86-6.86V84.42a6.86,6.86,0,0,1,6.86-6.86h42.31a6.86,6.86,0,0,1,6.86,6.86V86a6.86,6.86,0,0,1-6.86,6.86h-27a6.86,6.86,0,0,0-6.86,6.86v68.86a6.86,6.86,0,0,0,6.86,6.86H411.7a6.86,6.86,0,0,0,6.86-6.86V144a6.86,6.86,0,0,1,6.86-6.86H427a6.86,6.86,0,0,1,6.86,6.86v39.8A6.86,6.86,0,0,1,427,190.7Z" transform="translate(-0.46 -3.69)" fill="url(#linear-gradient-18)"/><path d="M367.45,157.07l-9-1.73s27-56.52,80.3-48.27l-.3,4.66S391.41,108.5,367.45,157.07Z" transform="translate(-0.46 -3.69)" fill="#0078c9"/><path d="M367.45,157.07l-9-1.73s27-56.52,80.3-48.27l-.3,4.66S391.41,108.5,367.45,157.07Z" transform="translate(-0.46 -3.69)" fill="url(#linear-gradient-19)"/><path d="M422.84,190.7H325.33a7.64,7.64,0,0,1-7.64-7.64V85.2a7.64,7.64,0,0,1,7.64-7.64h40.76a7.64,7.64,0,0,1,7.63,7.64h0a7.64,7.64,0,0,1-7.63,7.64H340.61a7.64,7.64,0,0,0-7.64,7.64v67.3a7.64,7.64,0,0,0,7.64,7.64h66.95a7.64,7.64,0,0,0,7.64-7.64v-23a7.64,7.64,0,0,1,7.64-7.64h0a7.64,7.64,0,0,1,7.63,7.64v38.24A7.64,7.64,0,0,1,422.84,190.7Z" transform="translate(-0.46 -3.69)" fill="#0078c9"/><path d="M355.56,150.8s12.67-66.91,80.3-74.8l1.43-13.38L470,93l-31.54,31.3.24-17.2s-44.21-11.95-80.3,48.27Z" transform="translate(-0.46 -3.69)" fill="#0078c9"/><polygon points="438.03 120.58 448.73 124.35 475.97 94.95 469.58 89.28 438.03 120.58" fill="#0078c9"/><polygon points="438.03 120.58 448.73 124.35 475.97 94.95 469.58 89.28 438.03 120.58" fill="url(#linear-gradient-20)"/><rect x="245.3" y="203.62" width="71.96" height="58.53" rx="7.59" fill="#0078c9"/><rect x="245.28" y="203.31" width="71.96" height="58.53" rx="7.59" fill="url(#linear-gradient-21)"/><path d="M245.05,409.9a3.55,3.55,0,0,0-2-.55c-2.37-.11-4.81.38-7.09-.29-1-.28-1.92-.78-2.93-1a2.77,2.77,0,0,0-2.8.87,3.81,3.81,0,0,0-.43,2.17l0,2.63a2.28,2.28,0,0,0,.13.94,2.12,2.12,0,0,0,1,.92,14.33,14.33,0,0,0,6.65,1.65c2.16.11,6.74.27,8.1-1.92C246.4,414.14,246.21,410.76,245.05,409.9Z" transform="translate(-0.46 -3.69)" fill="#0078c9"/><path d="M280.73,411.48c-3.18.06-6.35.06-9.53,0a1.8,1.8,0,0,0-.92.16,1.32,1.32,0,0,0-.5.57c-.75,1.43-.43,3.17-.06,4.74a1.34,1.34,0,0,0,.3.7,1.45,1.45,0,0,0,1,.33c4.66.48,9.61.9,13.8-1.18a2,2,0,0,0,1.05-.92,2.14,2.14,0,0,0,.07-1.07C285.36,409.68,285,411.41,280.73,411.48Z" transform="translate(-0.46 -3.69)" fill="#0078c9"/><path d="M244.62,185.53a1.66,1.66,0,0,1,.24.93c-.11.58-.83.76-1.42.83-1.24.14-2.72.19-3.5-.79a3.46,3.46,0,0,1-.55-1.29,6.77,6.77,0,0,1-.27-2.75,2.82,2.82,0,0,1,1.51-2.18c1.13-.49,3.51-.08,3.84,1.06S243.94,184,244.62,185.53Z" transform="translate(-0.46 -3.69)" fill="url(#linear-gradient-22)"/><polygon points="275 219.08 292.78 228.92 275.32 240.99 275 219.08" fill="#0078c9"/></svg>